<?xml version="1.0" encoding="utf-8"?>
<!-- Generator: Adobe Illustrator 25.0.0, SVG Export Plug-In . SVG Version: 6.00 Build 0)  -->
<svg version="1.1" id="Layer_1" xmlns="http://www.w3.org/2000/svg" xmlns:xlink="http://www.w3.org/1999/xlink" x="0px" y="0px"
	 viewBox="0 0 110.2 32" style="enable-background:new 0 0 110.2 32;" xml:space="preserve">
<style type="text/css">
	.st0{fill:#FFFFFF;}
</style>
<path class="st0" d="M81.5,7.9c-1.5-1.5-2.9-1.5-2.9-1.5h-5.8c0,0-1.8-0.1-3,0.5c-1.4,0.7-2.3,2.3-2.4,4c0,0.7,0,5.3,0,5.9
	c0.1,1.6,0.9,3.2,2.4,4c1.2,0.6,3,0.5,3,0.5h9.6v-3.9h-7.7c-2.4,0-2.6-1.6-2.6-2h10.4v-5.1C82.5,10.3,82.5,8.9,81.5,7.9 M72.1,12.6
	L72.1,12.6v-0.2c0,0-0.2-2.1,2.6-2.1h1.8c1.6,0,2,0.8,2.1,1.5v0.8C78.6,12.6,72.1,12.6,72.1,12.6z"/>
<polygon class="st0" points="20,4.1 13.8,4.1 7.8,12.6 7.8,2.4 2.2,1 2.2,27 7.6,25.7 7.6,15.4 14,23.9 20.7,23.9 12.7,13.8 "/>
<polygon class="st0" points="106,6.4 106,3 101.2,3 101.2,6.4 99.1,6.4 99.1,10.6 101.2,10.6 101.2,21.6 106,21.6 106,10.6 
	107.9,10.6 107.9,6.4 "/>
<path class="st0" d="M44.5,6.5c-0.7,0-5,0-5.7,0c-1.6,0.1-3.2,0.9-4,2.4c-0.6,1.2-0.5,3-0.5,3v9.6h4.8v-8.7c0-2.8,2.1-2.6,2.1-2.6
	h0.7c0,0,2.1-0.2,2.1,2.6v8.7h4.8v-9.6c0,0,0.1-1.8-0.5-3C47.7,7.5,46.1,6.6,44.5,6.5"/>
<path class="st0" d="M61.2,6.5c-0.7,0-5,0-5.7,0c-1.6,0.1-3.2,0.9-4,2.4c-0.6,1.2-0.5,3-0.5,3v9.6h4.8v-8.7c0-2.8,2.1-2.6,2.1-2.6
	h0.7c0,0,2.1-0.2,2.1,2.6v8.7h4.8v-9.6c0,0,0.1-1.8-0.5-3C64.4,7.5,62.8,6.6,61.2,6.5"/>
<path class="st0" d="M86.8,7c-1.4,0.7-2.3,2.3-2.4,4c0,0.7,0,5.3,0,5.9c0.1,1.6,0.9,3.2,2.4,4c1.2,0.6,3,0.5,3,0.5h7.7v-3.9h-5.8
	c-2.8,0-2.6-2.1-2.6-2.1v-2.9c0,0-0.2-2.1,2.6-2.1h5.8v-4h-7.7C89.8,6.4,88.1,6.4,86.8,7"/>
<path class="st0" d="M82.5,10.3c0,0,0.1-1.4-0.9-2.4c-1.5-1.5-2.9-1.5-2.9-1.5h-5.8c0,0-1.8-0.1-3,0.5c-1.4,0.7-2.3,2.3-2.4,4
	c0,0.7,0,5.3,0,5.9c0.1,1.6,0.9,3.2,2.4,4c1.2,0.6,3,0.5,3,0.5h9.6v-3.9h-7.7c-2.4,0-2.6-1.6-2.6-2h10.4L82.5,10.3z M78.7,12.6
	L78.7,12.6h-6.6v-0.2c0,0-0.2-2.1,2.6-2.1h4V12.6z"/>
<path class="st0" d="M26.2,6.5L26.2,6.5L26.2,6.5c-0.1,0-0.1,0-0.1,0c-0.1,0-0.3,0-0.6-0.1l0,0C25.9,6.5,26.1,6.5,26.2,6.5v3.4
	c1.9,0.4,3.3,2.1,3.3,4.1c0,2.3-1.9,4.2-4.2,4.2s-4.2-1.9-4.2-4.2c0-2,1.4-3.7,3.3-4.1V6.5c-3.9,0.4-6.9,3.6-6.9,7.5
	c0,4.2,3.5,7.5,7.8,7.5s7.8-3.4,7.8-7.5C33.1,10.1,30.1,6.9,26.2,6.5"/>
<path class="st0" d="M24.5,6.5L24.5,6.5C24.6,6.5,24.6,6.5,24.5,6.5c0.2,0,0.5-0.1,0.8-0.1l0,0C24.9,6.4,24.5,6.5,24.5,6.5L24.5,6.5
	L24.5,6.5L24.5,6.5z"/>
<path class="st0" d="M23.4,14c0,1.1,0.9,1.9,1.9,1.9s1.9-0.9,1.9-1.9c0-1.1-0.9-1.9-1.9-1.9C24.2,12.1,23.4,12.9,23.4,14"/>
<path class="st0" d="M59,27.6c-0.1,0.3-0.2,0.6-0.3,0.9c-0.2,0.3-0.4,0.5-0.6,0.7c-0.2,0.2-0.5,0.4-0.8,0.5s-0.6,0.2-0.9,0.2
	c-0.2,0-0.4,0-0.5-0.1c-0.2-0.1-0.3-0.1-0.4-0.2v0.2h-1.1l1.3-6.1h1.1l-0.4,2.1c0.1-0.1,0.3-0.2,0.5-0.2c0.2-0.1,0.4-0.1,0.6-0.1
	c0.3,0,0.5,0.1,0.7,0.2s0.4,0.3,0.6,0.5c0.2,0.2,0.3,0.4,0.3,0.7C59,26.9,59,27.2,59,27.6 M57.9,27.6L57.9,27.6c0-0.2,0.1-0.4,0-0.5
	c0-0.2-0.1-0.3-0.2-0.4c-0.1-0.1-0.2-0.2-0.3-0.3c-0.1-0.1-0.3-0.1-0.5-0.1c-0.1,0-0.2,0-0.4,0.1c-0.2,0-0.3,0.1-0.4,0.2l-0.4,2.1
	c0.2,0.2,0.4,0.3,0.7,0.3c0.2,0,0.3,0,0.5-0.1s0.3-0.2,0.4-0.3c0.1-0.1,0.2-0.3,0.3-0.4C57.8,27.9,57.8,27.7,57.9,27.6"/>
<path class="st0" d="M64,27.5c0,0.1,0,0.1-0.1,0.2c0,0.1,0,0.2-0.1,0.2h-3.4c0,0.1,0,0.2,0.1,0.4c0,0.1,0.1,0.2,0.2,0.3
	c0.1,0.1,0.2,0.1,0.3,0.2c0.1,0,0.3,0.1,0.4,0.1c0.2,0,0.4,0,0.6-0.1c0.2-0.1,0.4-0.2,0.5-0.3l0.5,0.7c-0.3,0.2-0.7,0.4-1,0.5
	s-0.6,0.1-0.9,0.1c-0.3,0-0.6-0.1-0.9-0.2c-0.3-0.1-0.5-0.3-0.6-0.5c-0.2-0.2-0.3-0.4-0.3-0.7c-0.1-0.3-0.1-0.6,0-0.9
	s0.2-0.6,0.4-0.9s0.4-0.5,0.6-0.7c0.3-0.2,0.5-0.4,0.8-0.5s0.6-0.2,0.9-0.2c0.3,0,0.6,0.1,0.8,0.2c0.3,0.1,0.5,0.3,0.6,0.5
	c0.2,0.2,0.3,0.4,0.4,0.7C64.1,26.9,64.1,27.2,64,27.5 M63,27.1L63,27.1c0-0.3-0.1-0.5-0.3-0.7s-0.4-0.2-0.7-0.2s-0.5,0.1-0.8,0.2
	c-0.2,0.2-0.4,0.4-0.6,0.7H63z"/>
<path class="st0" d="M69,25.4l-3,5.1c-0.2,0.4-0.5,0.7-0.7,0.8c-0.3,0.2-0.6,0.3-0.9,0.3c0,0-0.1,0-0.2,0s-0.1,0-0.2,0l-0.1-1
	c0.1,0,0.2,0.1,0.2,0.1c0.1,0,0.2,0,0.2,0c0.2,0,0.3,0,0.5-0.1s0.3-0.2,0.4-0.4l0.2-0.4l-0.7-4.3h1.2l0.4,2.8l1.5-2.8L69,25.4
	L69,25.4z"/>
<path class="st0" d="M64.4,31.7c-0.1,0-0.1,0-0.2,0s-0.1,0-0.2,0H64l-0.2-1.2l0.2,0.1c0.1,0,0.1,0.1,0.2,0.1c0.2,0.1,0.5,0,0.7-0.1
	c0.1-0.1,0.3-0.2,0.4-0.4l0.2-0.4l-0.8-4.4h1.5l0.4,2.6l1.4-2.6h1.4l-3.2,5.1c-0.2,0.4-0.5,0.7-0.8,0.9
	C65.1,31.6,64.8,31.7,64.4,31.7 M64.2,31.4L64.2,31.4C64.2,31.4,64.2,31.5,64.2,31.4c0.1,0,0.2,0,0.2,0c0.3,0,0.6-0.1,0.8-0.2
	c0.3-0.2,0.5-0.4,0.7-0.8l2.9-4.9h-0.9l-1.6,2.9l-0.4-2.9h-1l0.7,4.2l-0.3,0.5c-0.1,0.2-0.3,0.4-0.4,0.5c-0.2,0.1-0.5,0.2-0.8,0.1
	H64L64.2,31.4z"/>
<path class="st0" d="M73.5,27.6c-0.1,0.3-0.2,0.6-0.4,0.9c-0.2,0.3-0.4,0.5-0.6,0.7s-0.5,0.4-0.8,0.5s-0.6,0.2-0.9,0.2
	s-0.6-0.1-0.9-0.2s-0.5-0.3-0.6-0.5C69.1,29,69,28.8,69,28.5c-0.1-0.3-0.1-0.6,0-0.9s0.2-0.6,0.4-0.9c0.2-0.3,0.4-0.5,0.6-0.7
	c0.3-0.2,0.5-0.4,0.8-0.5s0.6-0.2,0.9-0.2s0.6,0.1,0.9,0.2s0.5,0.3,0.6,0.5c0.2,0.2,0.3,0.4,0.3,0.7C73.6,26.9,73.6,27.2,73.5,27.6
	 M72.4,27.6L72.4,27.6c0-0.2,0-0.4,0-0.5c0-0.2-0.1-0.3-0.2-0.4s-0.2-0.2-0.3-0.3c-0.1-0.1-0.3-0.1-0.5-0.1s-0.3,0-0.5,0.1
	s-0.3,0.2-0.4,0.3c-0.1,0.1-0.3,0.3-0.3,0.4c-0.1,0.2-0.2,0.3-0.2,0.5s0,0.4,0,0.5c0,0.2,0.1,0.3,0.2,0.4s0.2,0.2,0.3,0.3
	c0.1,0.1,0.3,0.1,0.5,0.1s0.3,0,0.5-0.1s0.3-0.2,0.4-0.3c0.1-0.1,0.3-0.3,0.3-0.4C72.3,27.9,72.4,27.7,72.4,27.6"/>
<path class="st0" d="M77.6,29.7h-1.1l0.5-2.6c0-0.2,0-0.3,0-0.4s-0.1-0.2-0.1-0.3c-0.1-0.1-0.1-0.1-0.2-0.2s-0.2-0.1-0.3-0.1
	c-0.2,0-0.3,0-0.5,0.1s-0.3,0.1-0.5,0.3l-0.6,3.2h-1.1l0.9-4.3h1.1l-0.1,0.3c0.1-0.1,0.2-0.1,0.3-0.2c0.1-0.1,0.2-0.1,0.3-0.1
	c0.1,0,0.2-0.1,0.3-0.1c0.1,0,0.2,0,0.3,0c0.2,0,0.4,0,0.6,0.1s0.3,0.2,0.5,0.3c0.1,0.1,0.2,0.3,0.3,0.6c0,0.2,0,0.5,0,0.8
	L77.6,29.7z"/>
<path class="st0" d="M77.7,29.8h-1.3l0.6-2.7c0-0.1,0-0.3,0-0.4s-0.1-0.2-0.1-0.2c-0.1-0.1-0.1-0.1-0.2-0.1c-0.2-0.1-0.5-0.1-0.7,0
	c-0.1,0-0.3,0.1-0.4,0.2l-0.7,3.2h-1.3l0.9-4.5h1.3v0.2c0,0,0.1,0,0.1-0.1c0.1-0.1,0.2-0.1,0.3-0.1c0.1,0,0.2-0.1,0.3-0.1
	c0.4-0.1,0.7,0,1,0.1c0.2,0.1,0.4,0.2,0.5,0.3c0.1,0.2,0.2,0.4,0.3,0.6c0,0.2,0,0.5,0,0.8L77.7,29.8z M76.6,29.6L76.6,29.6h0.9
	l0.5-2.5c0.1-0.3,0.1-0.6,0-0.8c0-0.2-0.1-0.4-0.2-0.5s-0.3-0.2-0.4-0.3c-0.3-0.1-0.5-0.1-0.9-0.1c-0.1,0-0.2,0-0.3,0.1
	c-0.1,0-0.2,0.1-0.3,0.1c-0.1,0.1-0.2,0.1-0.3,0.2L75.4,26l0.1-0.5h-0.9l-0.9,4.1h0.9l0.6-3.1l0,0c0.2-0.1,0.3-0.2,0.5-0.3
	c0.3-0.1,0.6-0.1,0.9,0c0.1,0,0.2,0.1,0.3,0.2c0.1,0.1,0.1,0.2,0.1,0.3c0,0.1,0,0.3,0,0.4L76.6,29.6z"/>
<path class="st0" d="M82.4,29.7h-1.1v-0.2c-0.2,0.1-0.3,0.2-0.5,0.2c-0.2,0.1-0.4,0.1-0.5,0.1c-0.3,0-0.6-0.1-0.8-0.2
	c-0.2-0.1-0.4-0.3-0.5-0.5s-0.2-0.4-0.3-0.7c0-0.3,0-0.6,0-0.9c0.1-0.3,0.2-0.6,0.4-0.9c0.2-0.3,0.4-0.5,0.6-0.7s0.5-0.4,0.8-0.5
	s0.5-0.2,0.8-0.2c0.2,0,0.4,0,0.5,0.1c0.2,0,0.3,0.1,0.4,0.2l0.4-2h1.1L82.4,29.7z M81.5,28.5L81.5,28.5l0.4-2.1l-0.1-0.1
	c-0.1,0-0.1-0.1-0.2-0.1s-0.1,0-0.2-0.1s-0.1,0-0.2,0c-0.2,0-0.3,0-0.5,0.1s-0.3,0.2-0.4,0.3c-0.1,0.1-0.2,0.3-0.3,0.4
	c-0.1,0.2-0.2,0.3-0.2,0.5s0,0.4,0,0.5c0,0.2,0.1,0.3,0.2,0.4s0.2,0.2,0.3,0.3c0.1,0.1,0.3,0.1,0.5,0.1C81,28.9,81.3,28.8,81.5,28.5
	"/>
<path class="st0" d="M87.4,29.7c-0.1,0-0.2,0.1-0.3,0.1c-0.1,0-0.2,0-0.3,0c-0.2,0-0.3,0-0.4-0.1c-0.1,0-0.2-0.1-0.3-0.2
	c-0.1-0.1-0.1-0.2-0.2-0.4c0-0.2,0-0.3,0-0.5l1.1-5.1h1.1l-1,4.9c0,0.2,0,0.3,0,0.4c0.1,0.1,0.1,0.1,0.2,0.1s0.3,0,0.4-0.1
	L87.4,29.7z"/>
<path class="st0" d="M86.8,29.9c-0.2,0-0.3,0-0.5-0.1c-0.2,0-0.3-0.1-0.4-0.2s-0.2-0.2-0.2-0.4c0-0.2,0-0.4,0-0.6l1.1-5.1h1.3
	l-1.1,5c0,0.2,0,0.3,0,0.3s0.1,0.1,0.2,0.1s0.2,0,0.3-0.1l0.2-0.1l-0.2,1l0,0c-0.1,0-0.2,0.1-0.3,0.1C87,29.9,86.9,29.9,86.8,29.9
	 M87,23.6L87,23.6l-1.1,5c0,0.2,0,0.4,0,0.5s0.1,0.2,0.2,0.3c0.1,0.1,0.2,0.1,0.3,0.2c0.2,0.1,0.5,0.1,0.7,0c0.1,0,0.2,0,0.2-0.1
	l0.1-0.6C87.2,29,87,29,86.8,28.8c-0.1-0.1-0.1-0.2-0.1-0.4l1-4.8C87.7,23.6,87,23.6,87,23.6z"/>
<path class="st0" d="M89,29.7h-1.1l0.9-4.3h1.1L89,29.7z M90.1,24.7L90.1,24.7H89l0.2-1.1h1.1L90.1,24.7z"/>
<path class="st0" d="M89.1,29.8h-1.3l0.9-4.5H90L89.1,29.8z M88,29.6L88,29.6h0.9l0.9-4.1h-0.9L88,29.6z M90.2,24.8L90.2,24.8h-1.3
	l0.3-1.3h1.3L90.2,24.8z M89.1,24.6L89.1,24.6H90l0.2-0.9h-0.9L89.1,24.6z"/>
<path class="st0" d="M96.3,29.7h-1.1l0.5-2.6c0.1-0.3,0-0.5-0.1-0.7s-0.3-0.2-0.5-0.2s-0.3,0-0.5,0.1s-0.3,0.1-0.5,0.3
	c0,0.2,0,0.4-0.1,0.6l-0.3,2.5h-1.1l0.5-2.6c0.1-0.3,0-0.5-0.1-0.7s-0.3-0.2-0.5-0.2s-0.3,0-0.4,0.1s-0.3,0.1-0.4,0.3L91,29.7h-1.1
	l0.9-4.3h1.1v0.3c0.2-0.1,0.3-0.2,0.5-0.3c0.2-0.1,0.4-0.1,0.6-0.1s0.4,0,0.6,0.1s0.3,0.2,0.5,0.4c0.3-0.2,0.5-0.3,0.8-0.4
	c0.2-0.1,0.5-0.1,0.8-0.1c0.2,0,0.4,0,0.6,0.1s0.3,0.2,0.5,0.3S97,26,97,26.3c0,0.2,0,0.5,0,0.8L96.3,29.7z"/>
<path class="st0" d="M96.4,29.8h-1.3l0.6-2.7c0.1-0.3,0-0.5-0.1-0.6s-0.2-0.2-0.4-0.2c-0.2,0-0.3,0-0.4,0.1c-0.1,0-0.3,0.1-0.4,0.2
	c0,0.2,0,0.4-0.1,0.6l-0.6,2.6h-1.3l0.6-2.7c0.1-0.3,0-0.5-0.1-0.6s-0.2-0.2-0.4-0.2c-0.2,0-0.3,0-0.4,0.1c-0.1,0-0.3,0.1-0.4,0.2
	l-0.6,3.2h-1.3l0.9-4.5h1.4v0.2c0.1-0.1,0.2-0.1,0.4-0.2c0.4-0.2,0.9-0.2,1.2,0c0.2,0.1,0.3,0.2,0.4,0.4c0.2-0.2,0.5-0.3,0.7-0.4
	c0.5-0.2,1-0.2,1.4,0c0.2,0.1,0.4,0.2,0.5,0.3c0.1,0.2,0.2,0.4,0.3,0.6c0,0.2,0,0.5,0,0.8L96.4,29.8z M95.4,29.6L95.4,29.6h0.9
	l0.5-2.5c0.1-0.3,0.1-0.6,0-0.8c0-0.2-0.1-0.4-0.2-0.5s-0.2-0.2-0.4-0.3c-0.4-0.1-0.9-0.1-1.3,0c-0.2,0.1-0.5,0.2-0.7,0.4L94.1,26
	L94,25.9c-0.1-0.2-0.3-0.3-0.4-0.4c-0.3-0.2-0.7-0.2-1.1,0c-0.2,0.1-0.4,0.2-0.5,0.3L91.8,26l0.1-0.5H91l-0.9,4.1H91l0.6-3.1l0,0
	c0.2-0.1,0.3-0.2,0.5-0.3c0.1-0.1,0.3-0.1,0.5-0.1s0.4,0.1,0.6,0.3c0.1,0.2,0.2,0.4,0.1,0.8l-0.5,2.4h0.9l0.5-2.5
	c0-0.2,0.1-0.4,0.1-0.6l0,0l0,0c0.2-0.1,0.3-0.2,0.5-0.3c0.2-0.1,0.3-0.1,0.5-0.1s0.4,0.1,0.6,0.3c0.1,0.2,0.2,0.4,0.1,0.8
	L95.4,29.6z"/>
<path class="st0" d="M98.2,29.7h-1.1l0.9-4.3h1.1L98.2,29.7z M99.3,24.7L99.3,24.7h-1.1l0.2-1.1h1.1L99.3,24.7z"/>
<path class="st0" d="M98.3,29.8H97l0.9-4.5h1.3L98.3,29.8z M97.3,29.6L97.3,29.6h0.8l0.9-4.1h-0.9L97.3,29.6z M99.4,24.8L99.4,24.8
	h-1.3l0.3-1.3h1.3L99.4,24.8z M98.3,24.6L98.3,24.6h0.9l0.2-0.9h-0.9L98.3,24.6z"/>
<path class="st0" d="M101.6,29.6c-0.1,0.1-0.3,0.1-0.4,0.2c-0.2,0-0.3,0.1-0.4,0.1c-0.3,0-0.5,0-0.6-0.1c-0.2-0.1-0.3-0.2-0.4-0.3
	c-0.1-0.1-0.1-0.3-0.1-0.5s0-0.4,0.1-0.7l0.4-1.9h-0.6l0.1-0.5c0.4-0.1,0.7-0.4,1-0.6c0.3-0.3,0.5-0.6,0.7-1.1h0.3l-0.3,1.2h1.1
	l-0.2,1h-1.1l-0.4,1.9c0,0.1,0,0.2,0,0.3c0,0.1,0,0.1,0.1,0.2l0.1,0.1c0.1,0,0.1,0,0.2,0s0.2,0,0.3,0c0.1,0,0.2-0.1,0.3-0.1
	L101.6,29.6z"/>
<path class="st0" d="M100.7,29.9c-0.3,0-0.5,0-0.7-0.1s-0.3-0.2-0.4-0.3c-0.1-0.1-0.1-0.3-0.1-0.5s0-0.4,0.1-0.7l0.4-1.8h-0.6
	l0.1-0.6l0,0c0.4-0.1,0.7-0.3,0.9-0.6c0.3-0.3,0.5-0.6,0.7-1.1v-0.1h0.5l-0.3,1.3h1.1l-0.2,1.1h-1.1l-0.4,1.9c0,0.1,0,0.2,0,0.2
	c0,0.1,0,0.1,0,0.1s0.1,0,0.1,0.1c0.1,0,0.2,0,0.4,0c0.1,0,0.2-0.1,0.3-0.1l0.2-0.1l-0.3,1.2l0,0c-0.1,0.1-0.3,0.1-0.4,0.2
	C101.1,29.9,100.9,29.9,100.7,29.9 M99.7,26.3L99.7,26.3h0.6l-0.4,2c-0.1,0.3-0.1,0.5-0.1,0.7s0,0.3,0.1,0.4s0.2,0.2,0.3,0.2
	c0.1,0.1,0.3,0.1,0.6,0.1c0.1,0,0.3,0,0.4,0s0.2-0.1,0.3-0.1l0.1-0.7c-0.1,0-0.1,0-0.2,0.1c-0.2,0.1-0.4,0.1-0.5,0
	c-0.1,0-0.1-0.1-0.2-0.1c0-0.1-0.1-0.1-0.1-0.2s0-0.2,0-0.3l0.4-2h1.1l0.2-0.8h-1.1l0.3-1.3h-0.2c-0.2,0.4-0.4,0.8-0.7,1.1
	c-0.3,0.3-0.6,0.5-1,0.6L99.7,26.3z"/>
<path class="st0" d="M105.6,28.5c0,0.2-0.1,0.4-0.3,0.6c-0.1,0.2-0.3,0.3-0.5,0.4s-0.4,0.2-0.6,0.3c-0.2,0.1-0.4,0.1-0.6,0.1
	c-0.3,0-0.6-0.1-0.9-0.2c-0.2-0.1-0.4-0.3-0.6-0.6l0.8-0.7c0.1,0.2,0.2,0.3,0.4,0.4c0.1,0.1,0.3,0.1,0.5,0.1s0.3,0,0.4-0.1
	s0.2-0.2,0.2-0.3c0-0.1,0-0.2-0.2-0.3c-0.1-0.1-0.3-0.2-0.6-0.3c-0.2,0-0.3-0.1-0.4-0.2s-0.3-0.2-0.4-0.3c-0.1-0.1-0.2-0.2-0.2-0.4
	c0-0.1,0-0.3,0-0.5s0.1-0.4,0.3-0.6c0.1-0.2,0.3-0.3,0.5-0.4s0.4-0.2,0.6-0.3c0.2-0.1,0.4-0.1,0.6-0.1c0.7,0,1.1,0.2,1.4,0.7
	l-0.8,0.6c-0.1-0.2-0.2-0.3-0.3-0.4c-0.1-0.1-0.3-0.1-0.5-0.1c-0.1,0-0.1,0-0.2,0s-0.1,0-0.2,0.1c-0.1,0-0.1,0.1-0.2,0.1
	c-0.1,0.1-0.1,0.1-0.1,0.2s0,0.2,0.2,0.3c0.1,0.1,0.3,0.2,0.6,0.3c0.2,0.1,0.3,0.1,0.5,0.2c0.1,0.1,0.3,0.2,0.4,0.3
	c0.1,0.1,0.2,0.2,0.2,0.4C105.6,28.2,105.6,28.3,105.6,28.5"/>
<path class="st0" d="M103.7,29.9c-0.3,0-0.6-0.1-0.9-0.2s-0.5-0.3-0.6-0.6V29l0.9-0.8l0.1,0.1c0.1,0.1,0.2,0.3,0.3,0.3
	c0.1,0.1,0.3,0.1,0.5,0.1s0.3,0,0.4-0.1c0.1,0,0.2-0.1,0.2-0.2s0-0.1-0.1-0.2s-0.3-0.2-0.6-0.2c-0.2-0.1-0.3-0.1-0.5-0.2
	s-0.3-0.2-0.4-0.3c-0.1-0.1-0.2-0.3-0.2-0.4c0-0.2-0.1-0.3,0-0.5c0-0.2,0.1-0.4,0.3-0.6c0.1-0.2,0.3-0.3,0.5-0.4s0.4-0.2,0.6-0.3
	c0.2-0.1,0.4-0.1,0.6-0.1c0.7,0,1.2,0.3,1.5,0.8v0.1l-0.9,0.8l-0.1-0.1c-0.1-0.1-0.2-0.3-0.3-0.3c-0.1-0.1-0.3-0.1-0.4-0.1
	s-0.1,0-0.2,0s-0.1,0-0.2,0.1c-0.1,0-0.1,0.1-0.2,0.1l-0.1,0.1c0,0,0,0.1,0.1,0.2s0.3,0.2,0.6,0.2c0.2,0.1,0.3,0.1,0.5,0.2
	s0.3,0.2,0.4,0.3c0.1,0.1,0.2,0.3,0.2,0.4c0,0.2,0,0.3,0,0.5s-0.1,0.4-0.3,0.6c-0.1,0.2-0.3,0.3-0.5,0.4s-0.4,0.2-0.6,0.3
	C104.1,29.9,103.9,29.9,103.7,29.9 M102.3,29.1L102.3,29.1c0.1,0.2,0.3,0.4,0.5,0.5c0.4,0.2,0.9,0.2,1.4,0.1
	c0.2-0.1,0.4-0.1,0.6-0.2s0.3-0.2,0.4-0.4c0.1-0.2,0.2-0.3,0.2-0.5s0-0.3,0-0.4s-0.1-0.2-0.2-0.3c-0.1-0.1-0.2-0.2-0.3-0.3
	c-0.1-0.1-0.3-0.1-0.5-0.2c-0.3-0.1-0.5-0.2-0.6-0.3c-0.2-0.1-0.2-0.3-0.2-0.4s0.1-0.2,0.1-0.2c0.1-0.1,0.1-0.1,0.2-0.1
	s0.2-0.1,0.2-0.1c0.1,0,0.2,0,0.2,0c0.2,0,0.4,0.1,0.5,0.1c0.1,0.1,0.2,0.2,0.3,0.3l0.6-0.5c-0.3-0.4-0.7-0.6-1.3-0.6
	c-0.2,0-0.4,0-0.6,0.1s-0.4,0.1-0.6,0.2s-0.3,0.2-0.4,0.4c-0.1,0.2-0.2,0.3-0.2,0.5s0,0.3,0,0.5c0,0.1,0.1,0.2,0.2,0.3
	c0.1,0.1,0.2,0.2,0.3,0.3c0.1,0.1,0.3,0.1,0.4,0.2c0.3,0.1,0.5,0.2,0.6,0.3c0.2,0.1,0.2,0.3,0.2,0.4c0,0.2-0.1,0.3-0.3,0.3
	c-0.1,0.1-0.3,0.1-0.5,0.1s-0.4-0.1-0.6-0.2c-0.1-0.1-0.2-0.2-0.3-0.3L102.3,29.1z"/>
</svg>
